<?xml version="1.0" encoding="UTF-8" standalone="no"?>
<svg xmlns="http://www.w3.org/2000/svg" xmlns:xlink="http://www.w3.org/1999/xlink"
     contentScriptType="application/ecmascript" contentStyleType="text/css" height="439px" preserveAspectRatio="none"
     style="width:384px;height:439px;" version="1.1" viewBox="0 0 384 439" width="384px" zoomAndPan="magnify">
    <defs>
        <filter height="300%" id="f1vstc3ggw5r1" width="300%" x="-1" y="-1">
            <feGaussianBlur result="blurOut" stdDeviation="2.0"/>
            <feColorMatrix in="blurOut" result="blurOut2" type="matrix"
                           values="0 0 0 0 0 0 0 0 0 0 0 0 0 0 0 0 0 0 .4 0"/>
            <feOffset dx="4.0" dy="4.0" in="blurOut2" result="blurOut3"/>
            <feBlend in="SourceGraphic" in2="blurOut3" mode="normal"/>
        </filter>
    </defs>
    <g><!--MD5=[e9a58730c562b34349daa605d1ed6662]
class Container-->
        <rect fill="#FEFECE" filter="url(#f1vstc3ggw5r1)" height="60.8047" id="Container"
              style="stroke:#A80036;stroke-width:1.5;" width="91" x="35" y="7"/>
        <ellipse cx="50.9" cy="23" fill="#ADD1B2" rx="11" ry="11" style="stroke:#A80036;stroke-width:1.0;"/>
        <path d="M53.2438,18.6719 C52.3063,18.2344 51.7125,18.0938 50.8375,18.0938 C48.2125,18.0938 46.2125,20.1719 46.2125,22.8906 L46.2125,24.0156 C46.2125,26.5938 48.3219,28.4844 51.2125,28.4844 C52.4313,28.4844 53.5875,28.1875 54.3375,27.6406 C54.9156,27.2344 55.2438,26.7813 55.2438,26.3906 C55.2438,25.9375 54.8531,25.5469 54.3844,25.5469 C54.1656,25.5469 53.9625,25.625 53.775,25.8125 C53.3219,26.2969 53.3219,26.2969 53.1344,26.3906 C52.7125,26.6563 52.025,26.7813 51.2594,26.7813 C49.2125,26.7813 47.9156,25.6875 47.9156,23.9844 L47.9156,22.8906 C47.9156,21.1094 49.1656,19.7969 50.9,19.7969 C51.4781,19.7969 52.0875,19.9531 52.5563,20.2031 C53.0406,20.4844 53.2125,20.7031 53.3063,21.1094 C53.3688,21.5156 53.4,21.6406 53.5406,21.7656 C53.6813,21.9063 53.9156,22.0156 54.1344,22.0156 C54.4,22.0156 54.6656,21.875 54.8375,21.6563 C54.9469,21.5 54.9781,21.3125 54.9781,20.8906 L54.9781,19.4688 C54.9781,19.0313 54.9625,18.9063 54.8688,18.75 C54.7125,18.4844 54.4313,18.3438 54.1344,18.3438 C53.8375,18.3438 53.6344,18.4375 53.4156,18.75 L53.2438,18.6719 Z "
              fill="#000000"/>
        <text fill="#000000" font-family="sans-serif" font-size="12" lengthAdjust="spacingAndGlyphs" textLength="57"
              x="65.1" y="27.1543">Container
        </text>
        <line style="stroke:#A80036;stroke-width:1.5;" x1="36" x2="125" y1="39" y2="39"/>
        <line style="stroke:#A80036;stroke-width:1.5;" x1="36" x2="125" y1="47" y2="47"/>
        <text fill="#000000" font-family="sans-serif" font-size="11" lengthAdjust="spacingAndGlyphs" textLength="79"
              x="41" y="61.2104">__contains__()
        </text><!--MD5=[c160724f8e3bb89ca8141a12554ac2e3]
class Collection-->
        <rect fill="#FEFECE" filter="url(#f1vstc3ggw5r1)" height="48" id="Collection"
              style="stroke:#A80036;stroke-width:1.5;" width="91" x="143" y="134.5"/>
        <ellipse cx="158" cy="150.5" fill="#ADD1B2" rx="11" ry="11" style="stroke:#A80036;stroke-width:1.0;"/>
        <path d="M160.3438,146.1719 C159.4063,145.7344 158.8125,145.5938 157.9375,145.5938 C155.3125,145.5938 153.3125,147.6719 153.3125,150.3906 L153.3125,151.5156 C153.3125,154.0938 155.4219,155.9844 158.3125,155.9844 C159.5313,155.9844 160.6875,155.6875 161.4375,155.1406 C162.0156,154.7344 162.3438,154.2813 162.3438,153.8906 C162.3438,153.4375 161.9531,153.0469 161.4844,153.0469 C161.2656,153.0469 161.0625,153.125 160.875,153.3125 C160.4219,153.7969 160.4219,153.7969 160.2344,153.8906 C159.8125,154.1563 159.125,154.2813 158.3594,154.2813 C156.3125,154.2813 155.0156,153.1875 155.0156,151.4844 L155.0156,150.3906 C155.0156,148.6094 156.2656,147.2969 158,147.2969 C158.5781,147.2969 159.1875,147.4531 159.6563,147.7031 C160.1406,147.9844 160.3125,148.2031 160.4063,148.6094 C160.4688,149.0156 160.5,149.1406 160.6406,149.2656 C160.7813,149.4063 161.0156,149.5156 161.2344,149.5156 C161.5,149.5156 161.7656,149.375 161.9375,149.1563 C162.0469,149 162.0781,148.8125 162.0781,148.3906 L162.0781,146.9688 C162.0781,146.5313 162.0625,146.4063 161.9688,146.25 C161.8125,145.9844 161.5313,145.8438 161.2344,145.8438 C160.9375,145.8438 160.7344,145.9375 160.5156,146.25 L160.3438,146.1719 Z "
              fill="#000000"/>
        <text fill="#000000" font-family="sans-serif" font-size="12" lengthAdjust="spacingAndGlyphs" textLength="59"
              x="172" y="154.6543">Collection
        </text>
        <line style="stroke:#A80036;stroke-width:1.5;" x1="144" x2="233" y1="166.5" y2="166.5"/>
        <line style="stroke:#A80036;stroke-width:1.5;" x1="144" x2="233" y1="174.5" y2="174.5"/><!--MD5=[680db2e54b1aeab47909911dbd9c18b9]
class Sized-->
        <rect fill="#FEFECE" filter="url(#f1vstc3ggw5r1)" height="60.8047" id="Sized"
              style="stroke:#A80036;stroke-width:1.5;" width="66" x="161.5" y="7"/>
        <ellipse cx="176.5" cy="23" fill="#ADD1B2" rx="11" ry="11" style="stroke:#A80036;stroke-width:1.0;"/>
        <path d="M178.8438,18.6719 C177.9063,18.2344 177.3125,18.0938 176.4375,18.0938 C173.8125,18.0938 171.8125,20.1719 171.8125,22.8906 L171.8125,24.0156 C171.8125,26.5938 173.9219,28.4844 176.8125,28.4844 C178.0313,28.4844 179.1875,28.1875 179.9375,27.6406 C180.5156,27.2344 180.8438,26.7813 180.8438,26.3906 C180.8438,25.9375 180.4531,25.5469 179.9844,25.5469 C179.7656,25.5469 179.5625,25.625 179.375,25.8125 C178.9219,26.2969 178.9219,26.2969 178.7344,26.3906 C178.3125,26.6563 177.625,26.7813 176.8594,26.7813 C174.8125,26.7813 173.5156,25.6875 173.5156,23.9844 L173.5156,22.8906 C173.5156,21.1094 174.7656,19.7969 176.5,19.7969 C177.0781,19.7969 177.6875,19.9531 178.1563,20.2031 C178.6406,20.4844 178.8125,20.7031 178.9063,21.1094 C178.9688,21.5156 179,21.6406 179.1406,21.7656 C179.2813,21.9063 179.5156,22.0156 179.7344,22.0156 C180,22.0156 180.2656,21.875 180.4375,21.6563 C180.5469,21.5 180.5781,21.3125 180.5781,20.8906 L180.5781,19.4688 C180.5781,19.0313 180.5625,18.9063 180.4688,18.75 C180.3125,18.4844 180.0313,18.3438 179.7344,18.3438 C179.4375,18.3438 179.2344,18.4375 179.0156,18.75 L178.8438,18.6719 Z "
              fill="#000000"/>
        <text fill="#000000" font-family="sans-serif" font-size="12" lengthAdjust="spacingAndGlyphs" textLength="34"
              x="190.5" y="27.1543">Sized
        </text>
        <line style="stroke:#A80036;stroke-width:1.5;" x1="162.5" x2="226.5" y1="39" y2="39"/>
        <line style="stroke:#A80036;stroke-width:1.5;" x1="162.5" x2="226.5" y1="47" y2="47"/>
        <text fill="#000000" font-family="sans-serif" font-size="11" lengthAdjust="spacingAndGlyphs" textLength="50"
              x="167.5" y="61.2104">__len__()
        </text><!--MD5=[47de47a8b5f06cbc5e036fae0a9149b7]
class Iterable-->
        <rect fill="#FEFECE" filter="url(#f1vstc3ggw5r1)" height="60.8047" id="Iterable"
              style="stroke:#A80036;stroke-width:1.5;" width="78" x="267.5" y="7"/>
        <ellipse cx="282.5" cy="23" fill="#ADD1B2" rx="11" ry="11" style="stroke:#A80036;stroke-width:1.0;"/>
        <path d="M284.8438,18.6719 C283.9063,18.2344 283.3125,18.0938 282.4375,18.0938 C279.8125,18.0938 277.8125,20.1719 277.8125,22.8906 L277.8125,24.0156 C277.8125,26.5938 279.9219,28.4844 282.8125,28.4844 C284.0313,28.4844 285.1875,28.1875 285.9375,27.6406 C286.5156,27.2344 286.8438,26.7813 286.8438,26.3906 C286.8438,25.9375 286.4531,25.5469 285.9844,25.5469 C285.7656,25.5469 285.5625,25.625 285.375,25.8125 C284.9219,26.2969 284.9219,26.2969 284.7344,26.3906 C284.3125,26.6563 283.625,26.7813 282.8594,26.7813 C280.8125,26.7813 279.5156,25.6875 279.5156,23.9844 L279.5156,22.8906 C279.5156,21.1094 280.7656,19.7969 282.5,19.7969 C283.0781,19.7969 283.6875,19.9531 284.1563,20.2031 C284.6406,20.4844 284.8125,20.7031 284.9063,21.1094 C284.9688,21.5156 285,21.6406 285.1406,21.7656 C285.2813,21.9063 285.5156,22.0156 285.7344,22.0156 C286,22.0156 286.2656,21.875 286.4375,21.6563 C286.5469,21.5 286.5781,21.3125 286.5781,20.8906 L286.5781,19.4688 C286.5781,19.0313 286.5625,18.9063 286.4688,18.75 C286.3125,18.4844 286.0313,18.3438 285.7344,18.3438 C285.4375,18.3438 285.2344,18.4375 285.0156,18.75 L284.8438,18.6719 Z "
              fill="#000000"/>
        <text fill="#000000" font-family="sans-serif" font-size="12" lengthAdjust="spacingAndGlyphs" textLength="46"
              x="296.5" y="27.1543">Iterable
        </text>
        <line style="stroke:#A80036;stroke-width:1.5;" x1="268.5" x2="344.5" y1="39" y2="39"/>
        <line style="stroke:#A80036;stroke-width:1.5;" x1="268.5" x2="344.5" y1="47" y2="47"/>
        <text fill="#000000" font-family="sans-serif" font-size="11" lengthAdjust="spacingAndGlyphs" textLength="51"
              x="273.5" y="61.2104">__iter__()
        </text><!--MD5=[29c548e87ba6a32cbee56c1b72b7b5d0]
class Reversible-->
        <rect fill="#FEFECE" filter="url(#f1vstc3ggw5r1)" height="60.8047" id="Reversible"
              style="stroke:#A80036;stroke-width:1.5;" width="96" x="269.5" y="128"/>
        <ellipse cx="284.5" cy="144" fill="#ADD1B2" rx="11" ry="11" style="stroke:#A80036;stroke-width:1.0;"/>
        <path d="M286.8438,139.6719 C285.9063,139.2344 285.3125,139.0938 284.4375,139.0938 C281.8125,139.0938 279.8125,141.1719 279.8125,143.8906 L279.8125,145.0156 C279.8125,147.5938 281.9219,149.4844 284.8125,149.4844 C286.0313,149.4844 287.1875,149.1875 287.9375,148.6406 C288.5156,148.2344 288.8438,147.7813 288.8438,147.3906 C288.8438,146.9375 288.4531,146.5469 287.9844,146.5469 C287.7656,146.5469 287.5625,146.625 287.375,146.8125 C286.9219,147.2969 286.9219,147.2969 286.7344,147.3906 C286.3125,147.6563 285.625,147.7813 284.8594,147.7813 C282.8125,147.7813 281.5156,146.6875 281.5156,144.9844 L281.5156,143.8906 C281.5156,142.1094 282.7656,140.7969 284.5,140.7969 C285.0781,140.7969 285.6875,140.9531 286.1563,141.2031 C286.6406,141.4844 286.8125,141.7031 286.9063,142.1094 C286.9688,142.5156 287,142.6406 287.1406,142.7656 C287.2813,142.9063 287.5156,143.0156 287.7344,143.0156 C288,143.0156 288.2656,142.875 288.4375,142.6563 C288.5469,142.5 288.5781,142.3125 288.5781,141.8906 L288.5781,140.4688 C288.5781,140.0313 288.5625,139.9063 288.4688,139.75 C288.3125,139.4844 288.0313,139.3438 287.7344,139.3438 C287.4375,139.3438 287.2344,139.4375 287.0156,139.75 L286.8438,139.6719 Z "
              fill="#000000"/>
        <text fill="#000000" font-family="sans-serif" font-size="12" lengthAdjust="spacingAndGlyphs" textLength="64"
              x="298.5" y="148.1543">Reversible
        </text>
        <line style="stroke:#A80036;stroke-width:1.5;" x1="270.5" x2="364.5" y1="160" y2="160"/>
        <line style="stroke:#A80036;stroke-width:1.5;" x1="270.5" x2="364.5" y1="168" y2="168"/>
        <text fill="#000000" font-family="sans-serif" font-size="11" lengthAdjust="spacingAndGlyphs" textLength="84"
              x="275.5" y="182.2104">__reversed__()
        </text><!--MD5=[896702bfce61b73dfbf765415205a76e]
class Sequence-->
        <rect codeLine="14" fill="#FEFECE" filter="url(#f1vstc3ggw5r1)" height="99.2188" id="Sequence"
              style="stroke:#A80036;stroke-width:1.5;" width="105" x="265" y="287.5"/>
        <ellipse cx="285.4" cy="303.5" fill="#ADD1B2" rx="11" ry="11" style="stroke:#A80036;stroke-width:1.0;"/>
        <path d="M287.7438,299.1719 C286.8063,298.7344 286.2125,298.5938 285.3375,298.5938 C282.7125,298.5938 280.7125,300.6719 280.7125,303.3906 L280.7125,304.5156 C280.7125,307.0938 282.8219,308.9844 285.7125,308.9844 C286.9313,308.9844 288.0875,308.6875 288.8375,308.1406 C289.4156,307.7344 289.7438,307.2813 289.7438,306.8906 C289.7438,306.4375 289.3531,306.0469 288.8844,306.0469 C288.6656,306.0469 288.4625,306.125 288.275,306.3125 C287.8219,306.7969 287.8219,306.7969 287.6344,306.8906 C287.2125,307.1563 286.525,307.2813 285.7594,307.2813 C283.7125,307.2813 282.4156,306.1875 282.4156,304.4844 L282.4156,303.3906 C282.4156,301.6094 283.6656,300.2969 285.4,300.2969 C285.9781,300.2969 286.5875,300.4531 287.0563,300.7031 C287.5406,300.9844 287.7125,301.2031 287.8063,301.6094 C287.8688,302.0156 287.9,302.1406 288.0406,302.2656 C288.1813,302.4063 288.4156,302.5156 288.6344,302.5156 C288.9,302.5156 289.1656,302.375 289.3375,302.1563 C289.4469,302 289.4781,301.8125 289.4781,301.3906 L289.4781,299.9688 C289.4781,299.5313 289.4625,299.4063 289.3688,299.25 C289.2125,298.9844 288.9313,298.8438 288.6344,298.8438 C288.3375,298.8438 288.1344,298.9375 287.9156,299.25 L287.7438,299.1719 Z "
              fill="#000000"/>
        <text fill="#000000" font-family="sans-serif" font-size="12" lengthAdjust="spacingAndGlyphs" textLength="61"
              x="300.6" y="307.6543">Sequence
        </text>
        <line style="stroke:#A80036;stroke-width:1.5;" x1="266" x2="369" y1="319.5" y2="319.5"/>
        <ellipse cx="276" cy="330.5" fill="none" rx="3" ry="3" style="stroke:#038048;stroke-width:1.0;"/>
        <text fill="#000000" font-family="sans-serif" font-size="11" lengthAdjust="spacingAndGlyphs" textLength="32"
              x="285" y="333.7104">index
        </text>
        <ellipse cx="276" cy="343.3047" fill="none" rx="3" ry="3" style="stroke:#038048;stroke-width:1.0;"/>
        <text fill="#000000" font-family="sans-serif" font-size="11" lengthAdjust="spacingAndGlyphs" textLength="31"
              x="285" y="346.5151">count
        </text>
        <line style="stroke:#A80036;stroke-width:1.5;" x1="266" x2="369" y1="353.1094" y2="353.1094"/>
        <ellipse cx="276" cy="364.1094" fill="#84BE84" rx="3" ry="3" style="stroke:#038048;stroke-width:1.0;"/>
        <text fill="#000000" font-family="sans-serif" font-size="11" lengthAdjust="spacingAndGlyphs" textLength="77"
              x="285" y="367.3198">__getItem__()
        </text>
        <ellipse cx="276" cy="376.9141" fill="#84BE84" rx="3" ry="3" style="stroke:#038048;stroke-width:1.0;"/>
        <text fill="#000000" font-family="sans-serif" font-size="11" lengthAdjust="spacingAndGlyphs" textLength="79"
              x="285" y="380.1245">__contains__()
        </text><!--MD5=[b4ca6c66a43296c0049d1e13d6d6becb]
class Mapping-->
        <rect codeLine="20" fill="#FEFECE" filter="url(#f1vstc3ggw5r1)" height="150.4375" id="Mapping"
              style="stroke:#A80036;stroke-width:1.5;" width="105" x="7" y="262"/>
        <ellipse cx="31.9" cy="278" fill="#ADD1B2" rx="11" ry="11" style="stroke:#A80036;stroke-width:1.0;"/>
        <path d="M34.2438,273.6719 C33.3063,273.2344 32.7125,273.0938 31.8375,273.0938 C29.2125,273.0938 27.2125,275.1719 27.2125,277.8906 L27.2125,279.0156 C27.2125,281.5938 29.3219,283.4844 32.2125,283.4844 C33.4313,283.4844 34.5875,283.1875 35.3375,282.6406 C35.9156,282.2344 36.2438,281.7813 36.2438,281.3906 C36.2438,280.9375 35.8531,280.5469 35.3844,280.5469 C35.1656,280.5469 34.9625,280.625 34.775,280.8125 C34.3219,281.2969 34.3219,281.2969 34.1344,281.3906 C33.7125,281.6563 33.025,281.7813 32.2594,281.7813 C30.2125,281.7813 28.9156,280.6875 28.9156,278.9844 L28.9156,277.8906 C28.9156,276.1094 30.1656,274.7969 31.9,274.7969 C32.4781,274.7969 33.0875,274.9531 33.5563,275.2031 C34.0406,275.4844 34.2125,275.7031 34.3063,276.1094 C34.3688,276.5156 34.4,276.6406 34.5406,276.7656 C34.6813,276.9063 34.9156,277.0156 35.1344,277.0156 C35.4,277.0156 35.6656,276.875 35.8375,276.6563 C35.9469,276.5 35.9781,276.3125 35.9781,275.8906 L35.9781,274.4688 C35.9781,274.0313 35.9625,273.9063 35.8688,273.75 C35.7125,273.4844 35.4313,273.3438 35.1344,273.3438 C34.8375,273.3438 34.6344,273.4375 34.4156,273.75 L34.2438,273.6719 Z "
              fill="#000000"/>
        <text fill="#000000" font-family="sans-serif" font-size="12" lengthAdjust="spacingAndGlyphs" textLength="51"
              x="48.1" y="282.1543">Mapping
        </text>
        <line style="stroke:#A80036;stroke-width:1.5;" x1="8" x2="111" y1="294" y2="294"/>
        <line style="stroke:#A80036;stroke-width:1.5;" x1="8" x2="111" y1="302" y2="302"/>
        <ellipse cx="18" cy="313" fill="#84BE84" rx="3" ry="3" style="stroke:#038048;stroke-width:1.0;"/>
        <text fill="#000000" font-family="sans-serif" font-size="11" lengthAdjust="spacingAndGlyphs" textLength="77"
              x="27" y="316.2104">__getitem__()
        </text>
        <ellipse cx="18" cy="325.8047" fill="#84BE84" rx="3" ry="3" style="stroke:#038048;stroke-width:1.0;"/>
        <text fill="#000000" font-family="sans-serif" font-size="11" lengthAdjust="spacingAndGlyphs" textLength="79"
              x="27" y="329.0151">__contains__()
        </text>
        <ellipse cx="18" cy="338.6094" fill="#84BE84" rx="3" ry="3" style="stroke:#038048;stroke-width:1.0;"/>
        <text fill="#000000" font-family="sans-serif" font-size="11" lengthAdjust="spacingAndGlyphs" textLength="47"
              x="27" y="341.8198">__eq__()
        </text>
        <ellipse cx="18" cy="351.4141" fill="#84BE84" rx="3" ry="3" style="stroke:#038048;stroke-width:1.0;"/>
        <text fill="#000000" font-family="sans-serif" font-size="11" lengthAdjust="spacingAndGlyphs" textLength="47"
              x="27" y="354.6245">__ne__()
        </text>
        <ellipse cx="18" cy="364.2188" fill="#84BE84" rx="3" ry="3" style="stroke:#038048;stroke-width:1.0;"/>
        <text fill="#000000" font-family="sans-serif" font-size="11" lengthAdjust="spacingAndGlyphs" textLength="27"
              x="27" y="367.4292">get()
        </text>
        <ellipse cx="18" cy="377.0234" fill="#84BE84" rx="3" ry="3" style="stroke:#038048;stroke-width:1.0;"/>
        <text fill="#000000" font-family="sans-serif" font-size="11" lengthAdjust="spacingAndGlyphs" textLength="40"
              x="27" y="380.2339">items()
        </text>
        <ellipse cx="18" cy="389.8281" fill="#84BE84" rx="3" ry="3" style="stroke:#038048;stroke-width:1.0;"/>
        <text fill="#000000" font-family="sans-serif" font-size="11" lengthAdjust="spacingAndGlyphs" textLength="35"
              x="27" y="393.0386">keys()
        </text>
        <ellipse cx="18" cy="402.6328" fill="#84BE84" rx="3" ry="3" style="stroke:#038048;stroke-width:1.0;"/>
        <text fill="#000000" font-family="sans-serif" font-size="11" lengthAdjust="spacingAndGlyphs" textLength="46"
              x="27" y="405.8433">values()
        </text><!--MD5=[73145e46247802284b2f7aaef1fa1797]
class Set-->
        <rect codeLine="30" fill="#FEFECE" filter="url(#f1vstc3ggw5r1)" height="176.0469" id="Set"
              style="stroke:#A80036;stroke-width:1.5;" width="83" x="147" y="249"/>
        <ellipse cx="175.95" cy="265" fill="#ADD1B2" rx="11" ry="11" style="stroke:#A80036;stroke-width:1.0;"/>
        <path d="M178.2938,260.6719 C177.3563,260.2344 176.7625,260.0938 175.8875,260.0938 C173.2625,260.0938 171.2625,262.1719 171.2625,264.8906 L171.2625,266.0156 C171.2625,268.5938 173.3719,270.4844 176.2625,270.4844 C177.4813,270.4844 178.6375,270.1875 179.3875,269.6406 C179.9656,269.2344 180.2938,268.7813 180.2938,268.3906 C180.2938,267.9375 179.9031,267.5469 179.4344,267.5469 C179.2156,267.5469 179.0125,267.625 178.825,267.8125 C178.3719,268.2969 178.3719,268.2969 178.1844,268.3906 C177.7625,268.6563 177.075,268.7813 176.3094,268.7813 C174.2625,268.7813 172.9656,267.6875 172.9656,265.9844 L172.9656,264.8906 C172.9656,263.1094 174.2156,261.7969 175.95,261.7969 C176.5281,261.7969 177.1375,261.9531 177.6063,262.2031 C178.0906,262.4844 178.2625,262.7031 178.3563,263.1094 C178.4188,263.5156 178.45,263.6406 178.5906,263.7656 C178.7313,263.9063 178.9656,264.0156 179.1844,264.0156 C179.45,264.0156 179.7156,263.875 179.8875,263.6563 C179.9969,263.5 180.0281,263.3125 180.0281,262.8906 L180.0281,261.4688 C180.0281,261.0313 180.0125,260.9063 179.9188,260.75 C179.7625,260.4844 179.4813,260.3438 179.1844,260.3438 C178.8875,260.3438 178.6844,260.4375 178.4656,260.75 L178.2938,260.6719 Z "
              fill="#000000"/>
        <text fill="#000000" font-family="sans-serif" font-size="12" lengthAdjust="spacingAndGlyphs" textLength="20"
              x="193.05" y="269.1543">Set
        </text>
        <line style="stroke:#A80036;stroke-width:1.5;" x1="148" x2="229" y1="281" y2="281"/>
        <line style="stroke:#A80036;stroke-width:1.5;" x1="148" x2="229" y1="289" y2="289"/>
        <ellipse cx="158" cy="300" fill="#84BE84" rx="3" ry="3" style="stroke:#038048;stroke-width:1.0;"/>
        <text fill="#000000" font-family="sans-serif" font-size="11" lengthAdjust="spacingAndGlyphs" textLength="57"
              x="167" y="303.2104">isdisjoint()
        </text>
        <ellipse cx="158" cy="312.8047" fill="#84BE84" rx="3" ry="3" style="stroke:#038048;stroke-width:1.0;"/>
        <text fill="#000000" font-family="sans-serif" font-size="11" lengthAdjust="spacingAndGlyphs" textLength="43"
              x="167" y="316.0151">__le__()
        </text>
        <ellipse cx="158" cy="325.6094" fill="#84BE84" rx="3" ry="3" style="stroke:#038048;stroke-width:1.0;"/>
        <text fill="#000000" font-family="sans-serif" font-size="11" lengthAdjust="spacingAndGlyphs" textLength="39"
              x="167" y="328.8198">__lt__()
        </text>
        <ellipse cx="158" cy="338.4141" fill="#84BE84" rx="3" ry="3" style="stroke:#038048;stroke-width:1.0;"/>
        <text fill="#000000" font-family="sans-serif" font-size="11" lengthAdjust="spacingAndGlyphs" textLength="43"
              x="167" y="341.6245">__gt__()
        </text>
        <ellipse cx="158" cy="351.2188" fill="#84BE84" rx="3" ry="3" style="stroke:#038048;stroke-width:1.0;"/>
        <text fill="#000000" font-family="sans-serif" font-size="11" lengthAdjust="spacingAndGlyphs" textLength="47"
              x="167" y="354.4292">__ge__()
        </text>
        <ellipse cx="158" cy="364.0234" fill="#84BE84" rx="3" ry="3" style="stroke:#038048;stroke-width:1.0;"/>
        <text fill="#000000" font-family="sans-serif" font-size="11" lengthAdjust="spacingAndGlyphs" textLength="47"
              x="167" y="367.2339">__ne__()
        </text>
        <ellipse cx="158" cy="376.8281" fill="#84BE84" rx="3" ry="3" style="stroke:#038048;stroke-width:1.0;"/>
        <text fill="#000000" font-family="sans-serif" font-size="11" lengthAdjust="spacingAndGlyphs" textLength="53"
              x="167" y="380.0386">__and__()
        </text>
        <ellipse cx="158" cy="389.6328" fill="#84BE84" rx="3" ry="3" style="stroke:#038048;stroke-width:1.0;"/>
        <text fill="#000000" font-family="sans-serif" font-size="11" lengthAdjust="spacingAndGlyphs" textLength="43"
              x="167" y="392.8433">__or__()
        </text>
        <ellipse cx="158" cy="402.4375" fill="#84BE84" rx="3" ry="3" style="stroke:#038048;stroke-width:1.0;"/>
        <text fill="#000000" font-family="sans-serif" font-size="11" lengthAdjust="spacingAndGlyphs" textLength="52"
              x="167" y="405.6479">__sub__()
        </text>
        <ellipse cx="158" cy="415.2422" fill="#84BE84" rx="3" ry="3" style="stroke:#038048;stroke-width:1.0;"/>
        <text fill="#000000" font-family="sans-serif" font-size="11" lengthAdjust="spacingAndGlyphs" textLength="50"
              x="167" y="418.4526">__xor__()
        </text><!--MD5=[b208eed1f1e2a67f46be531517530ff6]
reverse link Container to Collection-->
        <path codeLine="1" d="M121.108,83.244 C136.951,100.701 154.437,119.967 167.626,134.499 " fill="none"
              id="Container-backto-Collection" style="stroke:#A80036;stroke-width:1.0;"/>
        <polygon fill="none" points="115.732,87.736,107.474,68.222,126.099,78.327,115.732,87.736"
                 style="stroke:#A80036;stroke-width:1.0;"/><!--MD5=[a0809be297fc6e446a5b6569c997c2ce]
reverse link Sized to Collection-->
        <path codeLine="2" d="M191.987,88.34 C191.179,104.373 190.322,121.369 189.66,134.499 " fill="none"
              id="Sized-backto-Collection" style="stroke:#A80036;stroke-width:1.0;"/>
        <polygon fill="none" points="185.003,87.844,193.001,68.222,198.985,88.549,185.003,87.844"
                 style="stroke:#A80036;stroke-width:1.0;"/><!--MD5=[30609b773d1acd1d8ef4d49cf63668f8]
reverse link Iterable to Collection-->
        <path codeLine="3" d="M262.921,82.448 C245.404,100.113 225.937,119.746 211.307,134.499 " fill="none"
              id="Iterable-backto-Collection" style="stroke:#A80036;stroke-width:1.0;"/>
        <polygon fill="none" points="257.975,77.495,277.028,68.222,267.916,87.352,257.975,77.495"
                 style="stroke:#A80036;stroke-width:1.0;"/><!--MD5=[87bf419453f28017049c036529b0db76]
reverse link Iterable to Reversible-->
        <path codeLine="4" d="M311.106,88.329 C312.345,101.735 313.647,115.814 314.75,127.745 " fill="none"
              id="Iterable-backto-Reversible" style="stroke:#A80036;stroke-width:1.0;"/>
        <polygon fill="none" points="304.118,88.781,309.247,68.222,318.059,87.493,304.118,88.781"
                 style="stroke:#A80036;stroke-width:1.0;"/><!--MD5=[651602a2ea0447a3e0f2c682b54bbbc0]
reverse link Reversible to Sequence-->
        <path codeLine="5" d="M317.5,209.405 C317.5,233.82 317.5,263.096 317.5,287.343 " fill="none"
              id="Reversible-backto-Sequence" style="stroke:#A80036;stroke-width:1.0;"/>
        <polygon fill="none" points="310.5,209.042,317.5,189.042,324.5,209.042,310.5,209.042"
                 style="stroke:#A80036;stroke-width:1.0;"/><!--MD5=[c02269a6765db59efffba9a0b7445bbf]
reverse link Collection to Mapping-->
        <path codeLine="6" d="M159.793,198.778 C145.747,217.996 128.387,241.748 112.08,264.06 " fill="none"
              id="Collection-backto-Mapping" style="stroke:#A80036;stroke-width:1.0;"/>
        <polygon fill="none" points="154.183,194.591,171.636,182.574,165.485,202.852,154.183,194.591"
                 style="stroke:#A80036;stroke-width:1.0;"/><!--MD5=[1317568493796c4665b61a5c76c851cf]
reverse link Collection to Set-->
        <path codeLine="7" d="M188.5,202.641 C188.5,216.7 188.5,232.85 188.5,248.946 " fill="none"
              id="Collection-backto-Set" style="stroke:#A80036;stroke-width:1.0;"/>
        <polygon fill="none" points="181.5,202.574,188.5,182.574,195.5,202.574,181.5,202.574"
                 style="stroke:#A80036;stroke-width:1.0;"/><!--MD5=[2b845843ceda23dcbdd59fb0bd756b91]
reverse link Collection to Sequence-->
        <path codeLine="8" d="M217.189,198.752 C236.278,224.871 261.494,259.372 281.869,287.249 " fill="none"
              id="Collection-backto-Sequence" style="stroke:#A80036;stroke-width:1.0;"/>
        <polygon fill="none" points="211.515,202.852,205.364,182.574,222.817,194.591,211.515,202.852"
                 style="stroke:#A80036;stroke-width:1.0;"/><!--MD5=[6673b547c125098f76615737d3467259]
@startuml
Container <|- - Collection
Sized <|- - Collection
Iterable <|- - Collection
Iterable <|- - Reversible
Reversible <|- - Sequence
Collection <|- - Mapping
Collection <|- - Set
Collection <|- - Sequence

Container : __contains__()
Sized : __len__()
Iterable : __iter__()
Reversible : __reversed__()
class Sequence {
 +index
 +count
 +__getItem__()
 +__contains__()
}
class Mapping{
 +__getitem__()
 +__contains__()
 +__eq__()
 +__ne__()
 +get()
 +items()
 +keys()
 +values()
}
class Set{
 +isdisjoint()
 +__le__()
 +__lt__()
 +__gt__()
 +__ge__()
 +__ne__()
 +__and__()
 +__or__()
 +__sub__()
 +__xor__()
}
@enduml

PlantUML version 1.2020.21beta7(Unknown compile time)
(GPL source distribution)
Java Runtime: Java(TM) SE Runtime Environment
JVM: Java HotSpot(TM) 64-Bit Server VM
Default Encoding: UTF-8
Language: en
Country: US
-->
    </g>
</svg>